<svg width="147" height="109" viewBox="0 0 147 109" fill="none" xmlns="http://www.w3.org/2000/svg">
<g clip-path="url(#clip0_59_573)">
<path d="M6.68999 107.67L10.73 98.02L0.0699944 71.49C-0.160006 70.87 0.179994 70.54 0.799994 70.54H8.59999C9.04999 70.54 9.48999 70.76 9.65999 71.21L15.27 87.03L20.94 71.21C21.11 70.76 21.56 70.54 22 70.54H29.8C30.42 70.54 30.7 70.88 30.48 71.49L15.95 108.01C15.78 108.46 15.33 108.68 14.89 108.68H7.42999C6.75999 108.68 6.36999 108.34 6.69999 107.67H6.68999Z" fill="white"/>
<path d="M31.28 84.2801C31.28 76.2001 36.5 69.8601 44.07 69.8601C47.94 69.8601 50.58 71.2601 52.31 73.6701L52.42 71.4301C52.42 70.9301 52.81 70.5301 53.32 70.5301H60.27C60.78 70.5301 61.17 70.9201 61.17 71.4301V97.1201C61.17 97.6301 60.72 98.0201 60.22 98.0201H53.32C52.81 98.0201 52.42 97.6301 52.42 97.1201L52.31 94.8201C50.46 97.2301 47.83 98.6901 44.07 98.6901C36.5 98.6901 31.28 92.4101 31.28 84.2701V84.2801ZM46.2 90.1701C49.51 90.1701 51.81 87.8101 51.81 84.2201C51.81 80.6301 49.51 78.3901 46.2 78.3901C42.89 78.3901 40.48 80.7501 40.48 84.2801C40.48 87.8101 42.95 90.1701 46.2 90.1701Z" fill="white"/>
<path d="M67.03 97.1201V71.4301C67.03 70.9301 67.42 70.5301 67.92 70.5301H75.33C75.78 70.5301 76.17 70.7501 76.17 71.4801L76.45 74.5701C78.02 71.7701 80.43 69.8601 84.3 69.8601C89.97 69.8601 94.23 74.1201 94.23 81.2501V97.1201C94.23 97.6301 93.78 98.0201 93.28 98.0201H85.71C85.2 98.0201 84.81 97.6301 84.81 97.1201V83.6001C84.81 80.1801 83.41 78.5001 80.66 78.5001C77.91 78.5001 76.45 80.1801 76.45 83.6001V97.1201C76.45 97.6301 76.06 98.0201 75.55 98.0201H67.92C67.42 98.0201 67.03 97.6301 67.03 97.1201Z" fill="white"/>
<path d="M98.6201 84.1101C98.6201 76.0301 104.68 69.8601 112.98 69.8601C117.64 69.8601 121.39 71.8801 123.75 74.9701C124.09 75.3601 123.98 75.8701 123.64 76.2001L119.32 80.3501C118.93 80.7401 118.2 80.8001 117.81 80.3501C116.41 79.0601 115.06 78.5001 113.43 78.5001C109.73 78.5001 107.65 81.0801 107.65 84.1101C107.65 87.1401 109.72 90.0601 113.6 90.0601C115.11 90.0601 116.46 89.5001 117.86 88.1501C118.25 87.7601 118.98 87.8101 119.37 88.2001L123.69 92.3501C124.03 92.6901 124.14 93.1901 123.8 93.5801C121.44 96.6701 117.68 98.6901 113.25 98.6901C104.78 98.6901 98.6101 92.3501 98.6101 84.1101H98.6201Z" fill="white"/>
<path d="M131.79 97.18V78.11H127.3C126.79 78.11 126.46 77.77 126.46 77.27V71.38C126.46 70.87 126.8 70.54 127.3 70.54H145.7C146.2 70.54 146.54 70.88 146.54 71.38V77.27C146.54 77.78 146.2 78.11 145.7 78.11H141.21V97.18C141.21 97.69 140.87 98.02 140.37 98.02H132.63C132.13 98.02 131.79 97.68 131.79 97.18Z" fill="white"/>
<path d="M66.3301 44.3201C70.1701 48.1601 76.3901 48.1601 80.2201 44.3201L82.5001 42.0401L73.2801 32.8201L64.0601 42.0401L66.3401 44.3201H66.3301Z" fill="white"/>
<path d="M100.94 5.15L98.6601 2.88C94.8201 -0.96 88.6001 -0.96 84.7701 2.88L82.4901 5.15L73.2701 14.37L64.0501 5.15L61.7701 2.88C57.9301 -0.96 51.7101 -0.96 47.8801 2.88L45.6001 5.15L54.8201 14.37L45.6001 23.59L54.8201 32.81L64.0401 23.59L73.2601 32.81L82.4801 23.59L91.7001 32.81L100.92 23.59L91.7001 14.37L100.92 5.15H100.94Z" fill="white"/>
</g>
<defs>
<clipPath id="clip0_59_573">
<rect width="146.54" height="108.68" fill="white"/>
</clipPath>
</defs>
</svg>
